<?xml version="1.0" encoding="UTF-8"?>
<svg xmlns="http://www.w3.org/2000/svg" viewBox="0 0 1920 1700.39">
  <defs>
    <style>.cls-1{font-size:18px;}.cls-1,.cls-2,.cls-3,.cls-4,.cls-5,.cls-6,.cls-7,.cls-8{font-family:KozGoPr6N-Regular-90ms-RKSJ-H, 'Kozuka Gothic Pr6N';}.cls-1,.cls-2,.cls-3,.cls-4,.cls-5,.cls-6,.cls-8{fill:#4d4d4d;}.cls-2{font-size:15px;}.cls-3{font-size:20px;}.cls-9{letter-spacing:.25em;}.cls-10{fill:none;}.cls-10,.cls-11,.cls-12{stroke-miterlimit:10;stroke-width:3px;}.cls-10,.cls-7{stroke:#666;}.cls-11{fill:#ffac06;}.cls-11,.cls-12{stroke:gray;}.cls-12{fill:#cee741;}.cls-4{font-size:11px;}.cls-5{font-size:25px;}.cls-6{font-size:30px;}.cls-7,.cls-8{font-size:48px;}</style>
  </defs>
  <g id="bg">
    <rect id="library" class="cls-10" x="273.83" y="373.87" width="727.83" height="381.52" />
    <rect id="build3" class="cls-10" x="273.83" y="35.78" width="1306.57" height="180" />
    <rect id="hall" class="cls-10" x="273.83" y="857.52" width="241.83" height="580.7" />
    <rect id="sickbay" class="cls-10" x="1353.83" y="857.52" width="171.39" height="103.3" />
    <polygon id="office" class="cls-10" points="1595.65 1265.56 1162.09 1265.56 1162.09 874.26 1329.17 874.26 1328.86 1046.43 1595.65 1046.43 1595.65 1265.56" />
    <polygon id="triangle2" class="cls-10" points="1180.56 382.2 1180.74 754.16 1552.51 382.38 1180.56 382.2" />
    <polygon id="triangle1" class="cls-10" points="1563.6 752.36 1560.43 532.35 1343.58 749.2 1563.6 752.36" />
    <polyline id="side_road2" class="cls-10" points="1147.22 1348.22 1147.22 857.52 1595.65 857.52" />
    <polyline id="side_road1" class="cls-10" points="1042.74 1348.22 1042.74 857.52 232.74 857.52" />
  </g>
  <g id="booths">
    <rect id="booth_1" class="cls-11" x="1004.65" y="742.48" width="58.04" height="72.78" />
    <rect id="booth_2" class="cls-11" x="1004.65" y="650.33" width="58.04" height="72.78" />
    <rect id="booth_3" class="cls-11" x="1004.65" y="466.02" width="58.04" height="72.78" />
    <rect id="booth_4" class="cls-11" x="1004.65" y="373.87" width="58.04" height="72.78" />
    <rect id="booth_5" class="cls-11" x="1118.91" y="466.02" width="61.04" height="72.78" />
    <rect id="booth_6" class="cls-11" x="1118.91" y="373.87" width="61.04" height="72.78" />
    <rect id="min_booth_1" class="cls-11" x="1186.74" y="333.7" width="61.04" height="46.49" />
    <rect id="min_booth_2" class="cls-11" x="1256.98" y="333.7" width="61.04" height="46.49" />
    <rect id="min_booth_3" class="cls-11" x="1405.35" y="333.7" width="61.04" height="46.49" />
    <rect id="min_booth_4" class="cls-11" x="1486.74" y="333.7" width="61.04" height="46.49" />
    <rect id="min_booth_5" class="cls-11" x="1222.74" y="218.85" width="61.04" height="46.49" />
    <rect id="min_booth_6" class="cls-11" x="1307.26" y="218.85" width="61.04" height="46.49" />
    <rect id="min_booth_8" class="cls-11" x="1460.78" y="623.89" width="61.04" height="46.49" transform="translate(894.39 -864.97) rotate(45)" />
    <rect id="min_booth_7" class="cls-11" x="1410.9" y="673.78" width="61.04" height="46.49" transform="translate(915.05 -815.09) rotate(45)" />
    <rect id="booth_7" class="cls-11" x="1198.86" y="626.01" width="58.54" height="72.78" transform="translate(828.1 -674.41) rotate(45)" />
    <rect id="booth_8" class="cls-11" x="1252.96" y="556.86" width="76.07" height="60.55" transform="translate(793.29 -740.9) rotate(45)" />
    <rect id="booth_9" class="cls-11" x="1314.73" y="495.09" width="76.07" height="60.55" transform="translate(767.71 -802.68) rotate(45)" />
    <rect id="booth_10" class="cls-11" x="1375.14" y="434.69" width="76.07" height="60.55" transform="translate(742.69 -863.08) rotate(45)" />
    <rect id="booth_11" class="cls-11" x="1388.23" y="218.85" width="78.17" height="60.55" />
  </g>
  <g id="rest_areas">
    <rect id="rest_area_1" class="cls-12" x="771.43" y="218.39" width="100.7" height="75.13" />
    <rect id="rest_area_2" class="cls-12" x="771.43" y="296.13" width="100.7" height="75.13" />
    <rect id="rest_area_3" class="cls-12" x="889.35" y="296.13" width="100.7" height="75.13" />
    <rect id="rest_area_4" class="cls-12" x="889.35" y="218.39" width="100.7" height="75.13" />
    <rect id="rest_area_5" class="cls-12" x="1489.21" y="218.85" width="78.17" height="60.55" />
    <rect id="rest_area_6" class="cls-12" x="1004.65" y="558.17" width="58.04" height="72.78" />
    <rect id="rest_area_7" class="cls-12" x="1331.16" y="333.7" width="61.04" height="46.49" />
  </g>
  <g id="official_booths">
    <rect id="booth_fair" class="cls-12" x="1118.91" y="558.17" width="61.04" height="72.78" />
    <rect id="_07" class="cls-12" x="1161.47" y="113.26" width="111.58" height="72.78" />
    <rect id="glocal1" class="cls-12" x="760.55" y="113.26" width="111.58" height="72.78" />
    <rect id="glocal2" class="cls-12" x="898.74" y="113.26" width="111.58" height="72.78" />
    <rect id="booth_marche" class="cls-12" x="1118.91" y="645.43" width="61.04" height="36.39" />
    <rect id="hq" class="cls-12" x="1118.91" y="681.83" width="61.04" height="73.57" />
    <rect id="stage" class="cls-12" x="559.09" y="1221.43" width="216.78" height="216.78" />
  </g>
  <g id="texts">
    <text class="cls-5" transform="translate(1413.53 255.85)">
      <tspan x="0" y="0">11</tspan>
    </text>
    <text class="cls-5" transform="translate(1399.4 475.04)">
      <tspan x="0" y="0">10</tspan>
    </text>
    <text class="cls-5" transform="translate(1345.87 533.13)">
      <tspan x="0" y="0">9</tspan>
    </text>
    <text class="cls-5" transform="translate(1284.11 594.57)">
      <tspan x="0" y="0">8</tspan>
    </text>
    <text class="cls-5" transform="translate(1221.24 669.48)">
      <tspan x="0" y="0">7</tspan>
    </text>
    <text class="cls-5" transform="translate(1142.55 420.89)">
      <tspan x="0" y="0">6</tspan>
    </text>
    <text class="cls-5" transform="translate(1142.55 511.15)">
      <tspan x="0" y="0">5</tspan>
    </text>
    <text class="cls-5" transform="translate(1026.79 420.89)">
      <tspan x="0" y="0">4</tspan>
    </text>
    <text class="cls-5" transform="translate(1026.79 511.15)">
      <tspan x="0" y="0">3</tspan>
    </text>
    <text class="cls-5" transform="translate(1026.79 694.28)">
      <tspan x="0" y="0">2</tspan>
    </text>
    <text class="cls-5" transform="translate(1428.92 706.84)">
      <tspan x="0" y="0">⑧</tspan>
    </text>
    <text class="cls-5" transform="translate(1478.81 655.71)">
      <tspan x="0" y="0">⑦</tspan>
    </text>
    <text class="cls-5" transform="translate(1325.28 252.38)">
      <tspan x="0" y="0">⑥</tspan>
    </text>
    <text class="cls-5" transform="translate(1240.76 252.38)">
      <tspan x="0" y="0">⑤</tspan>
    </text>
    <text class="cls-5" transform="translate(1504.76 366.42)">
      <tspan x="0" y="0">④</tspan>
    </text>
    <text class="cls-5" transform="translate(1423.37 366.42)">
      <tspan x="0" y="0">③</tspan>
    </text>
    <text class="cls-5" transform="translate(1275 366.42)">
      <tspan x="0" y="0">②</tspan>
    </text>
    <text class="cls-5" transform="translate(1204.76 366.42)">
      <tspan x="0" y="0">①</tspan>
    </text>
    <text class="cls-5" transform="translate(1026.79 787.18)">
      <tspan x="0" y="0">1</tspan>
    </text>
    <text class="cls-3" transform="translate(1178.23 158.12)">
      <tspan x="0" y="0">30</tspan>
      <tspan class="cls-9" x="22.04" y="0">7</tspan>
      <tspan x="38.06" y="0">教室</tspan>
    </text>
    <text class="cls-1" transform="translate(909.53 144.96)">
      <tspan x="0" y="0">グローカル</tspan>
      <tspan x="2.18" y="20">ラウン</tspan>
      <tspan class="cls-9" x="56.18" y="20">ジ</tspan>
      <tspan x="78.68" y="20">II</tspan>
    </text>
    <text class="cls-1" transform="translate(771.34 144.96)">
      <tspan x="0" y="0">グローカル</tspan>
      <tspan x="4.46" y="20">ラウン</tspan>
      <tspan class="cls-9" x="58.46" y="20">ジ</tspan>
      <tspan x="80.96" y="20">I</tspan>
    </text>
    <text class="cls-2" transform="translate(1134.43 716.03)">
      <tspan x="0" y="0">出店</tspan>
      <tspan x="0" y="18">本部</tspan>
    </text>
    <text class="cls-4" transform="translate(1127.43 668.16)">
      <tspan x="0" y="0">マルシェ</tspan>
    </text>
    <text class="cls-2" transform="translate(1134.44 600.45)">
      <tspan x="0" y="0">縁日</tspan>
    </text>
    <text class="cls-2" transform="translate(1339.19 362.49)">
      <tspan x="0" y="0">休憩所</tspan>
    </text>
    <text class="cls-2" transform="translate(1011.17 600.45)">
      <tspan x="0" y="0">休憩所</tspan>
    </text>
    <text class="cls-5" transform="translate(902.2 265.35)">
      <tspan x="0" y="0">休憩所</tspan>
    </text>
    <text class="cls-3" transform="translate(1498.29 255.85)">
      <tspan x="0" y="0">休憩所</tspan>
    </text>
    <text class="cls-5" transform="translate(902.2 341.67)">
      <tspan x="0" y="0">休憩所</tspan>
    </text>
    <text class="cls-5" transform="translate(784.28 341.67)">
      <tspan x="0" y="0">休憩所</tspan>
    </text>
    <text class="cls-5" transform="translate(784.28 265.35)">
      <tspan x="0" y="0">休憩所</tspan>
    </text>
    <text class="cls-6" transform="translate(1381.42 904.01)">
      <tspan x="0" y="0">保健管理</tspan>
      <tspan x="0" y="36">センター</tspan>
    </text>
    <text class="cls-8" transform="translate(1017.24 84.3)">
      <tspan class="cls-9" x="0" y="0">3</tspan>
      <tspan x="38.45" y="0">号館</tspan>
    </text>
    <text class="cls-8" transform="translate(1306.87 1170.53)">
      <tspan x="0" y="0">事務棟</tspan>
    </text>
    <text class="cls-6" transform="translate(607.48 1336.34)">
      <tspan x="0" y="0">ステージ</tspan>
    </text>
    <text class="cls-8" transform="translate(298.74 1155.75)">
      <tspan x="0" y="0">大学会館</tspan>
    </text>
    <text class="cls-8" transform="translate(565.74 587.14)">
      <tspan x="0" y="0">図書館</tspan>
    </text>
    <text class="cls-7" transform="translate(1049.92 1621.45)">
      <tspan x="0" y="0">正門</tspan>
    </text>
  </g>
</svg>